<svg xmlns="http://www.w3.org/2000/svg" viewBox="0 0 600 400">
  <rect width="600" height="400" fill="#f00"/>
  <rect width="240" height="400" fill="#060"/>
  <g fill="#ff0" fill-rule="evenodd" stroke="#000" stroke-width="0.573">
    <path d="M318.665 219.286c0 35.628-28.894 64.523-64.523 64.523s-64.523-28.894-64.523-64.523 28.894-64.523 64.523-64.523 64.523 28.894 64.523 64.523z"/>
  </g>
  <g fill="red">
    <path d="M191.292 208.753v-42.583h86.083v42.583z"/>
  </g>
  <g fill="#fff">
    <path d="M191.292 166.17c14.347 0 28.695 0 43.042 0 0 14.194 0 28.389 0 42.583-14.347 0-28.695 0-43.042 0 0-14.194 0-28.389 0-42.583z"/>
  </g>
  <g fill="#009">
    <path d="M220.812 197.619c-7.524 0-13.625-6.1-13.625-13.625s6.1-13.625 13.625-13.625 13.625 6.1 13.625 13.625-6.1 13.625-13.625 13.625z"/>
  </g>
  <g fill="#fff">
    <path d="M213.018 183.994c0-4.305 3.49-7.795 7.795-7.795s7.795 3.49 7.795 7.795-3.49 7.795-7.795 7.795-7.795-3.49-7.795-7.795z"/>
  </g>
</svg>
