<svg xmlns="http://www.w3.org/2000/svg" xmlns:xlink="http://www.w3.org/1999/xlink" width="500" zoomAndPan="magnify" viewBox="0 0 375 374.999991" height="500" preserveAspectRatio="xMidYMid meet" version="1.2"><defs><clipPath id="b75cbd43c9"><path d="M 38.117188 52.695312 L 336.882812 52.695312 L 336.882812 351.457031 L 38.117188 351.457031 Z M 38.117188 52.695312 "/></clipPath><clipPath id="2a8aed3508"><path d="M 187.5 52.695312 C 105 52.695312 38.117188 119.574219 38.117188 202.074219 C 38.117188 284.578125 105 351.457031 187.5 351.457031 C 270 351.457031 336.882812 284.578125 336.882812 202.074219 C 336.882812 119.574219 270 52.695312 187.5 52.695312 Z M 187.5 52.695312 "/></clipPath><clipPath id="8e67d43721"><path d="M 55 87 L 319.746094 87 L 319.746094 319.769531 L 55 319.769531 Z M 55 87 "/></clipPath></defs><g id="36541a9ebc"><rect x="0" width="375" y="0" height="374.999991" style="fill:#ffffff;fill-opacity:1;stroke:none;"/><rect x="0" width="375" y="0" height="374.999991" style="fill:#ffffff;fill-opacity:1;stroke:none;"/><g clip-rule="nonzero" clip-path="url(#b75cbd43c9)"><g clip-rule="nonzero" clip-path="url(#2a8aed3508)"><path style=" stroke:none;fill-rule:nonzero;fill:#4ecfbf;fill-opacity:1;" d="M 38.117188 52.695312 L 336.882812 52.695312 L 336.882812 351.457031 L 38.117188 351.457031 Z M 38.117188 52.695312 "/></g></g><g clip-rule="nonzero" clip-path="url(#8e67d43721)"><path style=" stroke:none;fill-rule:nonzero;fill:#ffffff;fill-opacity:1;" d="M 220.40625 319.246094 L 281.449219 289.179688 L 290.953125 247.152344 C 291.074219 247.097656 291.179688 247.027344 291.273438 246.9375 C 299.878906 241.558594 303.765625 235.292969 308.46875 218.804688 L 309.164062 216.347656 C 313.117188 202.574219 313.863281 200.273438 316.746094 198.726562 L 317.65625 198.246094 L 319.742188 183.292969 L 319.742188 183.078125 C 319.796875 181.53125 319.101562 179.769531 317.34375 179.230469 C 317.175781 179.175781 308.210938 176.335938 289.460938 175.175781 L 284.167969 156.425781 L 297.464844 144.195312 C 309.539062 131.273438 308.84375 111.03125 295.917969 98.960938 L 293.40625 96.613281 C 292.640625 95.894531 291.839844 95.21875 291.007812 94.582031 C 290.171875 93.945312 289.308594 93.351562 288.417969 92.796875 C 287.527344 92.246094 286.609375 91.738281 285.667969 91.273438 C 284.726562 90.8125 283.761719 90.398438 282.78125 90.03125 C 281.796875 89.660156 280.800781 89.34375 279.785156 89.074219 C 278.773438 88.800781 277.746094 88.582031 276.710938 88.414062 C 275.675781 88.246094 274.632812 88.125 273.585938 88.058594 C 272.539062 87.992188 271.492188 87.976562 270.445312 88.011719 C 269.394531 88.046875 268.351562 88.136719 267.308594 88.273438 C 266.269531 88.410156 265.238281 88.601562 264.21875 88.839844 C 263.195312 89.082031 262.1875 89.371094 261.195312 89.707031 C 260.203125 90.046875 259.226562 90.433594 258.273438 90.867188 C 257.316406 91.300781 256.386719 91.78125 255.476562 92.304688 C 254.570312 92.832031 253.691406 93.402344 252.835938 94.011719 C 251.984375 94.625 251.164062 95.277344 250.375 95.96875 C 249.589844 96.664062 248.835938 97.390625 248.121094 98.160156 L 236.691406 110.445312 L 187.449219 99.980469 L 135.433594 110.375 L 124.058594 98.195312 C 111.9375 85.222656 91.648438 84.476562 78.71875 96.597656 L 76.210938 98.949219 C 63.285156 111.019531 62.589844 131.214844 74.664062 144.183594 L 87.964844 156.457031 L 82.710938 175.371094 C 65.628906 176.597656 57.609375 179.265625 57.449219 179.265625 C 55.6875 179.746094 54.9375 181.5625 55.050781 183.113281 L 57.183594 198.230469 L 58.09375 198.710938 C 60.976562 200.257812 61.726562 202.605469 65.675781 216.386719 L 66.371094 218.785156 C 70.644531 233.738281 74.230469 240.308594 81.378906 245.433594 L 93.453125 289.175781 L 154.441406 319.238281 Z M 253.894531 245.757812 L 253.558594 245.757812 C 238.550781 245.757812 229.207031 240.523438 225.84375 238.226562 C 220.554688 234.648438 213.988281 226.746094 211.53125 220.925781 C 209.019531 215.050781 207.898438 204.046875 209.335938 199.507812 C 210.726562 195.125 217.453125 192.351562 222.367188 190.644531 C 232.355469 187.167969 249.765625 185.621094 249.878906 185.621094 C 254.699219 185.359375 259.523438 185.21875 264.351562 185.195312 C 268.570312 185.195312 272.417969 185.300781 275.78125 185.609375 C 280.746094 186.023438 284.699219 186.675781 287.851562 187.585938 C 292.390625 188.976562 294.472656 190.792969 295.867188 192.445312 C 297.519531 194.316406 299.917969 199.921875 297.628906 216.6875 C 296.667969 223.472656 294.746094 228.808594 291.753906 233.027344 C 290.207031 235.21875 288.390625 237.03125 286.304688 238.53125 C 284.113281 240.078125 281.390625 241.414062 278.238281 242.480469 C 272.042969 244.613281 263.871094 245.738281 253.941406 245.789062 Z M 111.835938 130.453125 L 187.402344 113.847656 L 260.300781 130.457031 L 274.882812 174.734375 L 272.484375 174.734375 L 268 174.785156 C 257.265625 174.953125 246.488281 175.855469 235.796875 177.351562 C 230.402344 178.097656 225.007812 179.007812 219.664062 180.125 C 214.75 181.191406 210.851562 182.191406 207.375 183.007812 C 199.683594 184.929688 194.609375 186.210938 187.507812 186.210938 C 180.351562 186.210938 175.28125 184.972656 167.585938 183.007812 L 155.25 180.109375 C 149.214844 178.886719 143.144531 177.871094 137.039062 177.066406 C 126.089844 175.617188 115.144531 174.824219 104.195312 174.769531 L 102.375 174.769531 L 97.304688 174.824219 Z M 110.234375 185.195312 C 115.0625 185.222656 119.890625 185.359375 124.710938 185.609375 C 124.878906 185.609375 142.28125 187.15625 152.324219 190.628906 C 157.238281 192.339844 163.964844 195.113281 165.355469 199.496094 C 166.804688 203.980469 165.675781 214.984375 163.164062 220.910156 C 160.707031 226.730469 154.1875 234.636719 148.902344 238.214844 C 145.59375 240.457031 136.191406 245.746094 121.1875 245.746094 L 120.773438 245.746094 C 109.34375 245.691406 100.214844 244.195312 93.597656 241.417969 C 91.726562 240.652344 89.964844 239.691406 88.308594 238.535156 C 85.15625 236.292969 82.652344 233.300781 80.78125 229.558594 C 78.960938 225.980469 77.734375 221.757812 77.042969 216.734375 C 74.746094 199.964844 77.148438 194.394531 78.804688 192.433594 C 79.816406 191.257812 81.367188 189.761719 84.304688 188.539062 C 87.199219 187.296875 91.144531 186.402344 96.269531 185.863281 C 100.164062 185.453125 104.871094 185.277344 110.210938 185.277344 Z M 157.503906 308.242188 L 102.175781 281.003906 L 94.792969 251.3125 C 101.949219 253.132812 110.867188 254.195312 119.894531 254.195312 C 123.859375 254.210938 127.8125 253.980469 131.75 253.5 C 153.328125 250.9375 164.113281 237.425781 166.085938 234.703125 C 170.355469 228.773438 175.21875 218.15625 179.382812 208.695312 C 180.871094 205.332031 186.59375 205.171875 187.394531 205.171875 L 187.984375 205.171875 C 189.636719 205.277344 194.074219 205.8125 195.355469 208.695312 C 199.519531 218.210938 204.382812 228.828125 208.65625 234.703125 C 210.578125 237.375 221.367188 250.941406 242.988281 253.5 C 246.730469 253.925781 250.734375 254.195312 254.84375 254.195312 C 262.707031 254.195312 270.546875 253.394531 277.171875 251.953125 L 269.90625 281.003906 L 217.246094 308.242188 Z M 190.289062 276.628906 C 197.445312 275.988281 215.011719 273.265625 213.464844 262.585938 C 212.878906 259.167969 210.3125 251.636719 187.351562 256.546875 C 164.390625 251.628906 161.769531 259.164062 161.234375 262.585938 C 159.6875 273.265625 177.203125 275.988281 184.414062 276.628906 L 184.414062 286.507812 L 161.394531 286.507812 L 165.445312 294.203125 L 209.296875 294.203125 L 213.351562 286.507812 L 190.332031 286.507812 L 190.332031 276.628906 Z M 190.289062 276.628906 "/></g></g></svg>